<svg width="12" height="12" viewBox="0 0 12 12" fill="none" xmlns="http://www.w3.org/2000/svg">
<path d="M12 6C12 7.5913 11.3679 9.11742 10.2426 10.2426C9.11742 11.3679 7.5913 12 6 12C4.4087 12 2.88258 11.3679 1.75736 10.2426C0.632141 9.11742 0 7.5913 0 6C0 4.4087 0.632141 2.88258 1.75736 1.75736C2.88258 0.632141 4.4087 0 6 0C7.5913 0 9.11742 0.632141 10.2426 1.75736C11.3679 2.88258 12 4.4087 12 6ZM4.6875 3.75C4.17 3.75 3.75 4.17 3.75 4.6875V7.3125C3.75 7.56114 3.84877 7.7996 4.02459 7.97541C4.2004 8.15123 4.43886 8.25 4.6875 8.25C4.93614 8.25 5.1746 8.15123 5.35041 7.97541C5.52623 7.7996 5.625 7.56114 5.625 7.3125V4.6875C5.625 4.17 5.205 3.75 4.6875 3.75ZM7.3125 3.75C6.795 3.75 6.375 4.17 6.375 4.6875V7.3125C6.375 7.56114 6.47377 7.7996 6.64959 7.97541C6.8254 8.15123 7.06386 8.25 7.3125 8.25C7.56114 8.25 7.7996 8.15123 7.97541 7.97541C8.15123 7.7996 8.25 7.56114 8.25 7.3125V4.6875C8.25 4.17 7.83 3.75 7.3125 3.75Z" fill="white"/>
</svg>
