<svg width="400" height="462" viewBox="0 0 400 462" fill="none" xmlns="http://www.w3.org/2000/svg">
<circle cx="200" cy="200" r="200" fill="#07646B"/>
<circle cx="200" cy="200" r="150" fill="#25F7D7"/>
<circle cx="200" cy="200" r="91.5" stroke="white" stroke-width="17"/>
<path d="M160.831 211.293C157.55 211.293 154.732 210.133 152.379 207.812C150.059 205.459 148.899 202.642 148.899 199.361C148.899 196.113 150.059 193.329 152.379 191.009C154.732 188.688 157.55 187.528 160.831 187.528C164.013 187.528 166.797 188.688 169.183 191.009C171.57 193.329 172.763 196.113 172.763 199.361C172.763 201.548 172.199 203.554 171.072 205.376C169.979 207.166 168.537 208.608 166.747 209.702C164.957 210.762 162.985 211.293 160.831 211.293ZM202.53 211.293C199.249 211.293 196.432 210.133 194.078 207.812C191.758 205.459 190.598 202.642 190.598 199.361C190.598 196.113 191.758 193.329 194.078 191.009C196.432 188.688 199.249 187.528 202.53 187.528C205.712 187.528 208.496 188.688 210.882 191.009C213.269 193.329 214.462 196.113 214.462 199.361C214.462 201.548 213.899 203.554 212.772 205.376C211.678 207.166 210.236 208.608 208.446 209.702C206.657 210.762 204.685 211.293 202.53 211.293ZM244.229 211.293C240.948 211.293 238.131 210.133 235.778 207.812C233.458 205.459 232.298 202.642 232.298 199.361C232.298 196.113 233.458 193.329 235.778 191.009C238.131 188.688 240.948 187.528 244.229 187.528C247.411 187.528 250.195 188.688 252.582 191.009C254.968 193.329 256.161 196.113 256.161 199.361C256.161 201.548 255.598 203.554 254.471 205.376C253.377 207.166 251.935 208.608 250.146 209.702C248.356 210.762 246.384 211.293 244.229 211.293Z" fill="white"/>
<path d="M114.686 436.821C111.022 440.02 105.275 437.758 104.773 432.921L98.1864 369.491C97.7217 365.016 102.165 361.641 106.351 363.288L160.979 384.781C165.166 386.428 166.117 391.926 162.728 394.884L114.686 436.821Z" fill="#07646B"/>
</svg>
